//Arquivo de melodias:

int beep[]={
NOTE_C5, SEMICOLCHEIA, PAUSA, SEMICOLCHEIA,
NOTE_D5, SEMICOLCHEIA, PAUSA, SEMICOLCHEIA,
NOTE_E5, SEMICOLCHEIA, PAUSA, SEMICOLCHEIA
};

int qtdNotasBeep = sizeof(beep) / sizeof(beep[0]) / 2;

//-----

int kkk[]={
NOTE_FS5, COLCHEIA, PAUSA, COLCHEIA,
NOTE_E5, COLCHEIA+SEMIFUSA, PAUSA, COLCHEIA+SEMIFUSA,
NOTE_D5, COLCHEIA+FUSA, PAUSA, COLCHEIA+FUSA,
NOTE_C5, COLCHEIA+SEMICOLCHEIA, PAUSA, COLCHEIA+SEMICOLCHEIA,
NOTE_AS4, SEMINIMA, PAUSA, SEMINIMA,
NOTE_GS4, SEMIBREVE, PAUSA, SEMIBREVE
};

int qtdNotasKKK = sizeof(kkk) / sizeof(kkk[0]) / 2;

//-----

//MISSAO IMPOSSIVEL:
int mission[]={
NOTE_G4, SEMINIMA, PAUSA, COLCHEIA, NOTE_G4, COLCHEIA+SEMINIMA, NOTE_AS4, SEMINIMA, NOTE_C5, SEMINIMA,
NOTE_G4, SEMINIMA, PAUSA, COLCHEIA, NOTE_G4, COLCHEIA+SEMINIMA, NOTE_F4, SEMINIMA, NOTE_FS4, SEMINIMA,
NOTE_G4, SEMINIMA, PAUSA, COLCHEIA, NOTE_G4, COLCHEIA+SEMINIMA, NOTE_AS4, SEMINIMA, NOTE_C5, SEMINIMA,
NOTE_G4, SEMINIMA, PAUSA, COLCHEIA, NOTE_G4, COLCHEIA+SEMINIMA, NOTE_F4, SEMINIMA, NOTE_FS4, SEMINIMA,

NOTE_B5, COLCHEIA, NOTE_G5, COLCHEIA, NOTE_D5, SEMIBREVE, 
NOTE_B5, COLCHEIA, NOTE_G5, COLCHEIA, NOTE_CS4, SEMIBREVE,
NOTE_B5, COLCHEIA, NOTE_G5, COLCHEIA, NOTE_C4, SEMIBREVE, 
NOTE_B4, COLCHEIA, NOTE_C4, COLCHEIA, PAUSA, SEMIBREVE,

NOTE_B4, COLCHEIA, NOTE_G4, COLCHEIA, NOTE_FS5, SEMIBREVE, 
NOTE_B4, COLCHEIA, NOTE_G4, COLCHEIA, NOTE_F5, SEMIBREVE,
NOTE_B4, COLCHEIA, NOTE_G4, COLCHEIA, NOTE_E5, SEMIBREVE, 
NOTE_E5, COLCHEIA, NOTE_D5, COLCHEIA, PAUSA, SEMIBREVE,

/*
NOTE_E5, COLCHEIA, NOTE_C4, COLCHEIA, NOTE_G4, SEMIBREVE, 
NOTE_E5, COLCHEIA, NOTE_C4, COLCHEIA, NOTE_FS4, SEMIBREVE,
NOTE_E5, COLCHEIA, NOTE_C4, COLCHEIA, NOTE_F4, SEMIBREVE, 
NOTE_E4, COLCHEIA, NOTE_F4, COLCHEIA, PAUSA, SEMIBREVE,

NOTE_B5, COLCHEIA, NOTE_G5, COLCHEIA, NOTE_D5, SEMIBREVE, 
NOTE_B5, COLCHEIA, NOTE_G5, COLCHEIA, NOTE_CS4, SEMIBREVE,
NOTE_B5, COLCHEIA, NOTE_G5, COLCHEIA, NOTE_C4, SEMIBREVE, 
NOTE_B4, COLCHEIA, NOTE_C4, COLCHEIA, PAUSA, SEMIBREVE,
*/

NOTE_G4, SEMINIMA, PAUSA, COLCHEIA, NOTE_G4, COLCHEIA+SEMINIMA, NOTE_AS4, SEMINIMA, NOTE_C5, SEMINIMA,
NOTE_G4, SEMINIMA, PAUSA, COLCHEIA, NOTE_G4, COLCHEIA+SEMINIMA, NOTE_F4, SEMINIMA, NOTE_FS4, SEMINIMA,
NOTE_G4, SEMINIMA, PAUSA, COLCHEIA, NOTE_G4, COLCHEIA+SEMINIMA, NOTE_AS4, SEMINIMA, NOTE_C5, SEMINIMA,
NOTE_G4, SEMINIMA, PAUSA, COLCHEIA, NOTE_G4, COLCHEIA+SEMINIMA, NOTE_F4, SEMINIMA, NOTE_FS4, SEMINIMA,
NOTE_G4, MINIMA, PAUSA, SEMIBREVE
};

int qtdNotasMission = sizeof(mission) / sizeof(mission[0]) / 2;

//-----

//THE FINAL COUNTDOWN:
int tfc[]={
NOTE_B4, SEMICOLCHEIA, NOTE_A4, SEMICOLCHEIA, NOTE_B4, COLCHEIA, NOTE_E4, SEMINIMA+SEMINIMA, PAUSA, COLCHEIA,
NOTE_C5, SEMICOLCHEIA, NOTE_B4, SEMICOLCHEIA, NOTE_C5, COLCHEIA, NOTE_B4, COLCHEIA, NOTE_A4, SEMINIMA+SEMINIMA, PAUSA, COLCHEIA,
NOTE_C5, SEMICOLCHEIA, NOTE_B4, SEMICOLCHEIA, NOTE_C5, SEMINIMA, NOTE_E4, SEMINIMA+SEMINIMA,  PAUSA, COLCHEIA,
NOTE_A4, SEMICOLCHEIA, NOTE_G4, SEMICOLCHEIA, NOTE_A4, COLCHEIA, NOTE_G4, COLCHEIA, NOTE_FS4, COLCHEIA, NOTE_A4, COLCHEIA,
NOTE_G4, SEMINIMA, PAUSA, COLCHEIA,

NOTE_B4, SEMICOLCHEIA, NOTE_A4, SEMICOLCHEIA, NOTE_B4, COLCHEIA, NOTE_E4, SEMINIMA+SEMINIMA, PAUSA, COLCHEIA,
NOTE_C5, SEMICOLCHEIA, NOTE_B4, SEMICOLCHEIA, NOTE_C5, COLCHEIA, NOTE_B4, COLCHEIA, NOTE_A4, SEMINIMA+SEMINIMA, PAUSA, COLCHEIA,
NOTE_C5, SEMICOLCHEIA, NOTE_B4, SEMICOLCHEIA, NOTE_C5, SEMINIMA, NOTE_E4, SEMINIMA+SEMINIMA,  PAUSA, COLCHEIA,
NOTE_A4, SEMICOLCHEIA, NOTE_G4, SEMICOLCHEIA, NOTE_A4, COLCHEIA, NOTE_G4, COLCHEIA, NOTE_FS4, COLCHEIA, NOTE_A4, COLCHEIA,

//1.
/*
NOTE_G4, SEMINIMA, PAUSA, COLCHEIA,
NOTE_B4, SEMICOLCHEIA, NOTE_A4, SEMICOLCHEIA, NOTE_B4, COLCHEIA, NOTE_E4, SEMINIMA+SEMINIMA, PAUSA, COLCHEIA,

NOTE_C5, SEMICOLCHEIA, NOTE_B4, SEMICOLCHEIA, NOTE_C5, COLCHEIA, NOTE_B4, COLCHEIA, NOTE_A4, SEMINIMA+SEMINIMA, PAUSA, COLCHEIA,
NOTE_C5, SEMICOLCHEIA, NOTE_B4, SEMICOLCHEIA, NOTE_C5, SEMINIMA, NOTE_E4, SEMINIMA+SEMINIMA,  PAUSA, COLCHEIA,
NOTE_A4, SEMICOLCHEIA, NOTE_G4, SEMICOLCHEIA, NOTE_A4, COLCHEIA, NOTE_G4, COLCHEIA, NOTE_FS4, COLCHEIA, NOTE_A4, COLCHEIA,
NOTE_G4, SEMINIMA, PAUSA, COLCHEIA,

NOTE_B4, SEMICOLCHEIA, NOTE_A4, SEMICOLCHEIA, NOTE_B4, COLCHEIA, NOTE_E4, SEMINIMA+SEMINIMA, PAUSA, COLCHEIA,
NOTE_C5, SEMICOLCHEIA, NOTE_B4, SEMICOLCHEIA, NOTE_C5, COLCHEIA, NOTE_B4, COLCHEIA, NOTE_A4, SEMINIMA+SEMINIMA, PAUSA, COLCHEIA,
NOTE_C5, SEMICOLCHEIA, NOTE_B4, SEMICOLCHEIA, NOTE_C5, SEMINIMA, NOTE_E4, SEMINIMA+SEMINIMA,  PAUSA, COLCHEIA,
NOTE_A4, SEMICOLCHEIA, NOTE_G4, SEMICOLCHEIA, NOTE_A4, COLCHEIA, NOTE_G4, COLCHEIA, NOTE_FS4, COLCHEIA, NOTE_A4, COLCHEIA,
*/

//2.
NOTE_G4, SEMINIMA+COLCHEIA, NOTE_FS4, SEMICOLCHEIA, NOTE_G4, SEMICOLCHEIA, NOTE_A4, SEMINIMA+COLCHEIA, NOTE_G4, SEMICOLCHEIA, NOTE_A4, SEMICOLCHEIA,
NOTE_B4, COLCHEIA, NOTE_A4, COLCHEIA, NOTE_G4, COLCHEIA, NOTE_FS4, COLCHEIA, NOTE_E4, SEMINIMA, NOTE_C5, SEMINIMA,
NOTE_B4, MINIMA, NOTE_B4, COLCHEIA, NOTE_C5, SEMINIMA, NOTE_B4, SEMICOLCHEIA, NOTE_A4, SEMICOLCHEIA, NOTE_B4, SEMIBREVE
};

int qtdNotasTfc = sizeof(tfc) / sizeof(tfc[0]) / 2;

//-----
